HIERARCHY
ROOT Hips
{
	OFFSET 0.00000 0.00000 0.00000
	CHANNELS 6 Xposition Yposition Zposition Zrotation Yrotation Xrotation 
	JOINT LHipJoint
	{
		OFFSET 0 0 0
		CHANNELS 3 Zrotation Yrotation Xrotation
		JOINT LeftHip
		{
			OFFSET 1.38280 -1.96574 0.54427
			CHANNELS 3 Zrotation Yrotation Xrotation
			JOINT LeftKnee
			{
				OFFSET 2.72096 -7.47578 0.00000
				CHANNELS 3 Zrotation Yrotation Xrotation
				JOINT LeftAnkle
				{
					OFFSET 2.73041 -7.50176 0.00000
					CHANNELS 3 Zrotation Yrotation Xrotation
					JOINT LeftToe
					{
						OFFSET 0.16150 -0.44371 2.18031
						CHANNELS 3 Zrotation Yrotation Xrotation
						End Site
						{
							OFFSET 0.00000 -0.00000 1.12127
						}
					}
				}
			}
		}
	}
	JOINT RHipJoint
	{
		OFFSET 0 0 0
		CHANNELS 3 Zrotation Yrotation Xrotation
		JOINT RightHip
		{
			OFFSET -1.57224 -1.96575 0.54427
			CHANNELS 3 Zrotation Yrotation Xrotation
			JOINT RightKnee
			{
				OFFSET -2.95935 -8.13076 0.00000
				CHANNELS 3 Zrotation Yrotation Xrotation
				JOINT RightAnkle
				{
					OFFSET -2.52345 -6.93311 0.00000
					CHANNELS 3 Zrotation Yrotation Xrotation
					JOINT RightToe
					{
						OFFSET -0.04475 -0.10171 1.86688
						CHANNELS 3 Zrotation Yrotation Xrotation
						End Site
						{
							OFFSET -0.00000 -0.00000 0.95157
						}
					}
				}
			}
		}
	}
	JOINT lowerback
	{
		OFFSET 0 0 0
		CHANNELS 3 Zrotation Yrotation Xrotation
		JOINT Chest
		{
			OFFSET 0.00669 2.07367 0.09104
			CHANNELS 3 Zrotation Yrotation Xrotation
			JOINT Chest2
			{
				OFFSET -0.00664 2.06198 -0.04732
				CHANNELS 3 Zrotation Yrotation Xrotation
				JOINT lowerneck
				{
					OFFSET 0 0 0
					CHANNELS 3 Zrotation Yrotation Xrotation
					JOINT Neck
					{
						OFFSET -0.00021 1.49948 0.16345
						CHANNELS 3 Zrotation Yrotation Xrotation
						JOINT Head
						{
							OFFSET 0.06080 1.50567 -0.26702
							CHANNELS 3 Zrotation Yrotation Xrotation
							End Site
							{
								OFFSET 0.01726 1.56470 -0.11854
							}
						}
					}
				}
				JOINT LeftCollar
				{
					OFFSET 0 0 0
					CHANNELS 3 Zrotation Yrotation Xrotation
					JOINT LeftShoulder
					{
						OFFSET 3.14993 0.82932 -0.22488
CHANNELS 3 Zrotation Xrotation Yrotation
						JOINT LeftElbow
						{
OFFSET 0 -5.682360 -0.000000
CHANNELS 3 Zrotation Xrotation Yrotation
							JOINT LeftWrist
							{
OFFSET 0 -3.171120 0.000000
CHANNELS 3 Zrotation Xrotation Yrotation
								JOINT lhand
								{
									OFFSET 0 0 0
CHANNELS 3 Zrotation Xrotation Yrotation
									JOINT LFingers
									{
OFFSET 0 -0.632690 0.000000
CHANNELS 3 Zrotation Xrotation Yrotation
										End Site
										{
OFFSET 0 -0.510090 0.000000
										}
									}
								}
								JOINT LThumb
								{
OFFSET 0 0.000000 0.000000
CHANNELS 3 Zrotation Xrotation Yrotation
									End Site
									{
OFFSET 0 -0.517880 0.517880
									}
								}
							}
						}
					}
				}
				JOINT RightCollar
				{
					OFFSET 0 0 0
					CHANNELS 3 Zrotation Yrotation Xrotation
					JOINT RightShoulder
					{
						OFFSET -3.10571 0.91279 -0.33334
CHANNELS 3 Zrotation Xrotation Yrotation
						JOINT RightElbow
						{
OFFSET 0 -5.871200 -0.000000
CHANNELS 3 Zrotation Xrotation Yrotation
							JOINT RightWrist
							{
OFFSET 0 -3.375890 0.000000
CHANNELS 3 Zrotation Xrotation Yrotation
								JOINT rhand
								{
									OFFSET 0 0 0
CHANNELS 3 Zrotation Xrotation Yrotation
									JOINT RFingers
									{
OFFSET 0 -0.603260 0.000000
CHANNELS 3 Zrotation Xrotation Yrotation
										End Site
										{
OFFSET 0 -0.486360 0.000000
										}
									}
								}
								JOINT RThumb
								{
OFFSET 0 0.000000 0.000000
CHANNELS 3 Zrotation Xrotation Yrotation
									End Site
									{
OFFSET 0 -0.493790 0.493790
									}
								}
							}
						}
					}
				}
			}
		}
	}
}
MOTION
Frames: 12
Frame Time: 0.008333333333333333
-9.387431 17.934482 7.734541 1765.028331 84.502248 1776.982421 0.000000 0.000000 0.000000 -1.570201 -22.122708 -30.711290 4.158081 12.367815 37.045949 0.711903 -3.631907 -15.124272 0.813585 -5.755907 -16.077764 0.000000 0.000000 0.000000 13.951752 8.345354 -18.697460 -4.060402 -12.240324 36.587427 -0.654807 12.701473 -15.835573 -1.667795 -8.136895 23.130708 0.301790 5.174204 -6.873766 0.475507 6.891458 3.887110 1.268722 3.380262 7.910694 -3.207028 -6.372652 -19.011219 4.021936 -8.820620 23.393386 0.667054 -3.703615 11.044725 0.000000 0.000000 0.000000 15.650672 1.619567 -54.800102 64.187681 -57.326155 37.846629 10.112298 -19.006777 -36.159320 0.000000 0.000000 0.000000 -7.125000 0.000000 0.000000 -29.685529 64.174043 14.398367 0.000000 0.000000 0.000000 -2.395304 -31.717619 69.235749 -58.125220 -55.788569 -32.785972 -19.934769 0.215115 -22.759033 0.000000 0.000000 0.000000 7.125000 0.000000 0.000000 5.648599 6.028784 5.049257
-9.980275 17.857907 8.588508 1784.028214 74.780920 1796.198214 0.000000 0.000000 0.000000 2.493489 -20.227081 -28.071358 3.906708 12.035226 35.856571 1.271399 2.200136 -22.196743 0.630159 -5.079485 -14.135344 0.000000 0.000000 0.000000 16.404130 11.451659 -22.282454 -4.209534 -12.434053 37.285367 0.181453 14.659528 -8.080997 -1.399976 -7.484727 21.159593 2.486864 3.719433 -5.658618 1.073763 4.720553 3.945103 0.308790 2.423808 7.417498 -1.239469 -1.504150 -20.107579 0.395078 -1.679365 21.826037 0.109900 -0.777879 10.323164 0.000000 0.000000 0.000000 13.988300 -1.509356 -53.967808 58.531646 -55.905753 33.122218 12.605938 -17.266186 -38.227467 0.000000 0.000000 0.000000 -7.125000 0.000000 0.000000 -29.630853 66.622481 16.028361 0.000000 0.000000 0.000000 -10.264836 -20.896048 52.044810 -53.001147 -54.136439 -28.589008 -22.756345 1.569103 -23.105761 0.000000 0.000000 0.000000 7.125000 0.000000 0.000000 3.921621 5.200699 3.558512
-10.484174 17.799097 9.214328 1793.720985 68.839729 1805.757112 0.000000 0.000000 0.000000 1.721403 -19.741472 -25.933844 3.860738 11.972701 35.635634 2.288656 3.618844 -30.050518 0.049366 -1.432154 -3.938738 0.000000 0.000000 0.000000 15.756076 12.774668 -26.487301 -5.011117 -13.396288 40.870616 0.609299 15.598085 -2.287970 -0.999407 -6.361694 17.837611 2.292656 0.447468 -4.853866 1.736532 0.336272 4.687958 0.578107 0.256632 7.641287 2.115867 4.290168 -19.905467 -4.734830 6.593289 20.717020 -1.054496 2.678307 10.135023 0.000000 0.000000 0.000000 14.280660 -8.074510 -54.481709 53.960652 -54.472704 29.368392 10.125641 -18.128190 -35.572404 0.000000 0.000000 0.000000 -7.125000 0.000000 0.000000 -28.994762 63.678285 13.701411 0.000000 0.000000 0.000000 -24.502131 -15.925124 34.966317 -57.888705 -55.720451 -32.590398 -22.634910 0.945325 -24.339260 0.000000 0.000000 0.000000 7.125000 0.000000 0.000000 4.129246 3.929092 3.846714
-10.711031 17.852581 9.397748 1799.605058 63.987822 1811.376427 0.000000 0.000000 0.000000 -3.119183 -9.916461 -28.215582 4.348867 12.610751 37.928391 1.709937 3.361132 -26.100084 0.144613 -2.450229 -6.751655 0.000000 0.000000 0.000000 13.592926 16.129059 -27.324053 -5.146304 -13.546690 41.451069 0.600829 15.158312 -1.620380 -0.719536 -5.420404 15.111662 2.091879 -2.589365 -4.302011 1.895775 -3.713422 5.080820 0.418085 -1.741996 7.731648 5.941643 8.950508 -18.641582 -9.618936 13.075224 19.007879 -2.392778 5.459411 10.199910 0.000000 0.000000 0.000000 17.059551 -16.852388 -54.424204 43.610569 -50.069190 21.167858 8.096534 -19.727445 -36.896957 0.000000 0.000000 0.000000 -7.125000 0.000000 0.000000 -32.685211 64.242087 16.052048 0.000000 0.000000 0.000000 -45.213254 -16.623446 17.509258 -61.696879 -56.745347 -35.756586 -23.561569 -1.438330 -25.895406 0.000000 0.000000 0.000000 7.125000 0.000000 0.000000 3.748632 2.124963 3.614809
-10.727230 17.945397 9.318004 1800.756594 55.571518 1812.840000 0.000000 0.000000 0.000000 -5.671613 -5.870303 -27.809269 4.420407 12.699751 38.254841 2.991347 3.486872 -34.058047 0.173403 2.680723 7.391216 0.000000 0.000000 0.000000 11.550129 21.226360 -27.434097 -4.786575 -13.139248 39.892163 0.632574 14.476212 1.121943 -0.386863 -3.994085 11.059962 1.035863 -4.343985 -4.117075 1.841231 -5.979795 4.853458 0.721111 -2.922183 7.476832 9.368546 12.824760 -16.450056 -13.354308 18.565855 17.981558 -3.311428 7.930513 10.680976 0.000000 0.000000 0.000000 23.965672 -19.438289 -51.833587 36.638350 -45.946766 15.979669 8.927692 -20.216548 -36.057921 0.000000 0.000000 0.000000 -7.125000 0.000000 0.000000 -30.809456 63.769742 14.705008 0.000000 0.000000 0.000000 -74.124410 -20.988855 8.143005 -71.238110 -58.626391 -43.826746 -26.122913 -2.276944 -29.768800 0.000000 0.000000 0.000000 7.125000 0.000000 0.000000 2.798704 -2.485164 2.920734
-10.580344 17.975774 9.062941 1799.912471 46.512217 1811.342437 0.000000 0.000000 0.000000 -7.817977 -0.422210 -26.897148 4.793968 13.147970 39.924852 3.992882 2.051575 -38.622005 0.346036 3.779083 10.455989 0.000000 0.000000 0.000000 10.547859 25.583111 -26.455392 -4.406420 -12.682418 38.191000 0.687351 14.498805 5.207952 -0.167622 -2.637423 7.270924 -0.472938 -6.014341 -3.535280 0.907597 -8.051565 4.955565 0.407570 -4.002008 7.352336 12.393678 15.843293 -11.925358 -15.163174 22.774388 16.577845 -3.787646 10.141692 10.497443 0.000000 0.000000 0.000000 38.006777 -9.088580 -59.784193 35.039195 -44.839696 14.841145 15.747339 -23.674764 -35.207650 0.000000 0.000000 0.000000 -7.125000 0.000000 0.000000 -22.488529 64.882354 11.076429 0.000000 0.000000 0.000000 -107.408037 -20.158256 7.727981 -91.459945 -59.990141 -61.264280 -31.096355 -6.597620 -29.599956 0.000000 0.000000 0.000000 7.125000 0.000000 0.000000 -0.081728 -3.580854 -0.086633
-10.258561 17.859449 8.606294 1798.886344 37.483126 1810.255726 0.000000 0.000000 0.000000 -10.163944 8.694514 -29.629326 5.728423 14.159912 43.881889 3.909473 1.069158 -37.900181 0.110051 2.138219 5.887897 0.000000 0.000000 0.000000 8.667447 29.923377 -27.416747 -4.490596 -12.786083 38.572852 0.764475 15.555726 9.032122 -0.044282 -1.358166 3.734977 -2.602324 -6.991360 -1.676695 -0.674932 -9.165213 4.633741 0.077836 -4.625644 6.048172 13.851083 17.507300 -8.384093 -16.113406 25.347404 15.900101 -4.024566 11.526687 10.343604 0.000000 0.000000 0.000000 42.178186 22.366653 -67.591005 49.527998 -52.803274 25.797700 10.812919 -28.312639 -34.296656 0.000000 0.000000 0.000000 -7.125000 0.000000 0.000000 -26.891362 62.754968 12.050638 0.000000 0.000000 0.000000 -127.161741 -13.649698 -1.173778 -108.980852 -58.592607 -76.360141 -32.533385 -16.172158 -30.039623 0.000000 0.000000 0.000000 7.125000 0.000000 0.000000 -0.809044 -4.463747 -0.869602
-9.733158 17.714141 7.818024 1797.713790 54.092559 1814.447279 0.000000 0.000000 0.000000 -12.290942 2.809936 -41.013660 6.407107 14.811569 46.594646 2.711682 1.323395 -31.663173 0.037967 -1.246309 -3.426987 0.000000 0.000000 0.000000 4.279420 25.267353 -31.571032 -4.849502 -13.212331 40.168587 0.491569 14.562911 -2.937939 -0.045573 -1.377135 3.787163 -1.931991 -5.891617 -2.845095 0.302689 -7.749335 4.589551 0.702727 -3.912514 6.670408 14.078994 12.560741 -12.472005 -16.443032 18.078008 17.034225 -5.401977 7.937162 10.367345 0.000000 0.000000 0.000000 15.337610 30.293274 -37.332120 42.756373 -49.620744 20.514957 13.703836 -19.319079 -35.976914 0.000000 0.000000 0.000000 -7.125000 0.000000 0.000000 -25.608449 65.001768 12.773915 0.000000 0.000000 0.000000 -105.136420 6.025906 -32.440049 -130.309977 -52.869212 -94.073036 -44.521305 -32.474143 -29.370687 0.000000 0.000000 0.000000 7.125000 0.000000 0.000000 -7.629975 -8.005305 -8.691103
-9.388879 17.536171 6.813926 1625.370885 77.472992 1648.987846 0.000000 0.000000 0.000000 -8.616306 -19.000033 -52.716851 6.377503 14.784466 46.478673 0.082230 -10.084564 -8.358125 0.145041 -2.454444 -6.763244 0.000000 0.000000 0.000000 11.259711 3.783727 -30.795681 -5.004573 -13.388933 40.842295 -2.203612 12.428836 -26.819706 -0.263661 -3.302936 9.123314 6.838338 -4.844768 -6.012623 7.144810 -7.198446 2.493073 2.909357 -3.332282 6.095193 2.546792 -1.064817 -16.047025 -12.031811 0.717743 18.394781 -4.406240 -0.617863 8.436734 0.000000 0.000000 0.000000 5.963110 16.068031 -36.935099 49.495843 -52.790066 25.772122 11.799334 -17.378084 -33.741387 0.000000 0.000000 0.000000 -7.125000 0.000000 0.000000 -25.285950 62.518465 11.139763 0.000000 0.000000 0.000000 -82.179563 -7.787770 -103.261837 -126.125919 -54.441830 -90.701783 -61.544046 -59.002451 -25.938381 0.000000 0.000000 0.000000 7.125000 0.000000 0.000000 -17.738433 -13.757085 -22.397503
-9.291838 17.765198 6.253669 1618.321920 75.919957 1637.382771 0.000000 0.000000 0.000000 -14.792844 -19.344271 -43.744184 5.378599 13.797682 42.433292 0.071729 -9.436177 -7.815146 0.108706 -2.125126 -5.851656 0.000000 0.000000 0.000000 7.123088 8.669691 -22.117873 -5.058611 -13.449532 41.075301 -2.010843 11.219071 -25.536159 -1.614584 -8.008499 22.741942 6.767026 3.849940 -3.296742 4.908940 4.769233 2.727185 1.701336 2.579500 4.819723 -1.261936 -7.474255 -14.350954 -9.386180 -7.361860 21.582870 -3.805323 -4.369345 8.805620 0.000000 0.000000 0.000000 8.068108 11.902412 -41.729547 56.266168 -55.229960 31.253532 11.510975 -18.807034 -34.119585 0.000000 0.000000 0.000000 -7.125000 0.000000 0.000000 -25.971014 62.779234 11.622734 0.000000 0.000000 0.000000 -44.947689 -26.835413 12.361796 -32.058607 -42.585147 -12.783552 -15.340834 1.388022 -17.514770 0.000000 0.000000 0.000000 7.125000 0.000000 0.000000 8.311664 12.003083 6.475835
-9.076531 17.854713 6.286508 1616.687045 62.715025 1633.816778 0.000000 0.000000 0.000000 -16.238352 -23.598437 -38.774665 4.767254 13.116757 39.807264 -0.494259 -13.528509 -0.940001 0.002072 -0.285518 -0.784619 0.000000 0.000000 0.000000 9.977283 1.410719 -17.287807 -5.039171 -13.427797 40.991681 -1.935386 14.600154 -25.498921 -3.413779 -11.336461 33.423264 7.724616 7.635498 -2.957588 5.850886 10.001860 1.785544 2.486283 5.209476 3.749494 -3.072242 -12.427310 -16.113171 -3.174413 -15.416549 17.127168 -2.306578 -7.763731 7.897449 0.000000 0.000000 0.000000 13.667946 3.310910 -53.564827 62.586628 -56.959621 36.501750 8.377850 -19.691730 -35.261003 0.000000 0.000000 0.000000 -7.125000 0.000000 0.000000 -30.471253 62.954447 13.948051 0.000000 0.000000 0.000000 -2.281560 -42.062954 53.320212 -46.070083 -51.282021 -23.070687 -12.620781 -7.244948 -17.650265 0.000000 0.000000 0.000000 7.125000 0.000000 0.000000 10.105670 12.129878 7.882896
-8.963813 17.996032 6.335785 1623.580384 59.254610 1639.372421 0.000000 0.000000 0.000000 -11.301440 -27.553604 -36.335060 4.492337 12.788185 38.580765 -0.294118 -11.983135 -3.326012 0.060374 -1.585273 -4.360745 0.000000 0.000000 0.000000 13.892928 -0.478171 -17.424509 -5.275500 -13.687517 41.999692 -1.512523 9.674540 -22.076882 -3.701965 -11.752891 34.863329 7.918264 7.580629 -4.676993 4.408712 9.650797 1.955481 1.178500 5.036833 5.176747 -1.996258 -14.108163 -14.123695 3.811582 -19.392568 16.805636 -0.633756 -8.877691 8.078255 0.000000 0.000000 0.000000 15.071038 6.213689 -46.065906 73.332965 -58.923769 45.618041 10.825616 -20.796790 -35.100235 0.000000 0.000000 0.000000 -7.125000 0.000000 0.000000 -27.730984 63.457569 12.913908 0.000000 0.000000 0.000000 6.864387 -48.606069 67.180913 -53.932986 -54.463157 -29.345858 -12.403847 -8.459478 -18.252681 0.000000 0.000000 0.000000 7.125000 0.000000 0.000000 10.252939 11.546607 8.127671
